<?xml version="1.0" encoding="utf-8"?>
<!-- Generator: Adobe Illustrator 24.3.0, SVG Export Plug-In . SVG Version: 6.00 Build 0)  -->
<svg version="1.1" id="Layer_1" xmlns="http://www.w3.org/2000/svg" xmlns:xlink="http://www.w3.org/1999/xlink" x="0px" y="0px"
	 viewBox="0 0 512 512" style="enable-background:new 0 0 512 512;" xml:space="preserve">
<style type="text/css">
	.st0{fill:url(#XMLID_3_);}
	.st1{fill:#231F20;}
	.st2{fill:#404041;}
	.st3{fill:url(#XMLID_4_);}
	.st4{fill:url(#XMLID_5_);}
	.st5{fill:url(#XMLID_6_);}
	.st6{fill:url(#XMLID_7_);}
	.st7{fill:url(#XMLID_8_);}
	.st8{fill:#26285F;}
	.st9{fill:url(#XMLID_9_);}
	.st10{fill:#1E1B4E;}
	.st11{fill:#272E69;}
	.st12{fill:url(#XMLID_10_);}
	.st13{fill:url(#XMLID_11_);}
	.st14{fill:url(#XMLID_12_);}
	.st15{fill:#121325;}
	.st16{fill:url(#XMLID_13_);}
</style>
<g id="XMLID_1_">
	
		<linearGradient id="XMLID_3_" gradientUnits="userSpaceOnUse" x1="4.7445" y1="505.9634" x2="6.1472" y2="505.9634" gradientTransform="matrix(56.6604 0 0 56.6604 -261.7714 -28418.1211)">
		<stop  offset="0" style="stop-color:#27316D"/>
		<stop  offset="1" style="stop-color:#28316F"/>
	</linearGradient>
	<polygon id="XMLID_39_" class="st0" points="83.6,251.37 83.6,251.37 108.43,246.32 111.94,219.53 71.4,157.11 21.74,183.76 
		14.59,244.64 9.82,269.19 0,333.99 32.68,342.83 43.34,290.51 134.66,339.32 147.85,319.4 	"/>
	<path id="XMLID_42_" d="M236.64,298.08c6.03,1.96,9.68,7.86,11.5,16.41c2.52,11.36,4.21,18.24,5.75,21.18h-8.84
		c-1.26-2.24-2.95-9.12-5.05-18.94c-2.24-10.94-6.59-15.71-15.85-15.71h-9.54v34.65h-8.56v-77.29c4.77-0.98,11.64-1.68,17.81-1.68
		c10.24,0,16.83,2.1,21.46,6.31c3.65,3.37,5.89,8.7,5.89,14.59c0,10.38-6.31,17.11-14.59,20.06L236.64,298.08L236.64,298.08z
		 M224.58,294.29c10.94,0,17.96-6.17,17.96-15.57c0-11.64-8.7-15.15-18.24-15.15c-4.63,0-7.86,0.42-9.68,0.84v30.02h9.96V294.29z"/>
	<polygon id="XMLID_43_" points="306.64,335.54 265.26,335.54 265.26,257.26 304.82,257.26 304.82,264.42 273.81,264.42 
		273.81,290.93 302.99,290.93 302.99,298.08 273.81,298.08 273.81,328.38 306.64,328.38 	"/>
	<path id="XMLID_44_" d="M371.87,257.26l-26.93,78.41h-9.12l-24.83-78.27h9.26l12.06,39.28c3.23,10.66,6.17,20.48,8.28,29.6h0.28
		c2.1-9.12,5.19-19.36,8.7-29.6l13.05-39.42H371.87z"/>
	<rect id="XMLID_45_" x="380.42" y="257.26" width="8.56" height="78.41"/>
	<polygon id="XMLID_46_" points="452.38,264.56 429.24,264.56 429.24,335.54 420.68,335.54 420.68,264.56 397.68,264.56 
		397.68,257.26 452.38,257.26 	"/>
	<path id="XMLID_49_" class="st1" d="M240.01,227.38h-2.24l-6.45-17.53h-19.78l-6.45,17.53h-2.24l17.96-48.25h1.68L240.01,227.38z
		 M230.61,207.89l-6.45-17.25c-1.26-3.37-1.96-5.75-2.67-8.56h-0.14c-0.98,3.37-1.54,5.33-2.67,8.42l-6.45,17.39L230.61,207.89
		L230.61,207.89z"/>
	<path id="XMLID_50_" class="st1" d="M279.85,208.17c0,14.87-8,19.92-16.69,19.92c-7.86,0-15.57-4.63-15.57-19.36v-29.74h2.24v29.18
		c0,12.91,6.17,18.1,13.47,18.1c8.28,0,14.17-5.61,14.17-18.1v-29.18h2.24v29.18H279.85z"/>
	<polygon id="XMLID_51_" class="st1" points="319.4,181.09 303.27,181.09 303.27,227.38 301.03,227.38 301.03,181.09 284.9,181.09 
		284.9,179.13 319.4,179.13 	"/>
	<path id="XMLID_56_" class="st1" d="M363.17,202.7c0,17.25-10.52,25.39-21.18,25.39c-11.5,0-20.9-9.12-20.9-24.41
		c0-16.13,9.4-25.39,21.32-25.39C354.47,178.29,363.17,187.83,363.17,202.7z M323.47,203.68c0,10.24,6.45,22.58,18.52,22.58
		s18.8-10.94,18.8-23.29c0-10.38-5.61-22.72-18.38-22.72C329.36,180.11,323.47,192.18,323.47,203.68z"/>
	<path id="XMLID_59_" class="st1" d="M371.87,179.69c3.65-0.56,7.57-0.98,11.92-0.98c15.15,0,25.11,7.43,25.11,23.29
		c0,23.15-18.38,25.67-26.79,25.67c-3.37,0-6.73,0-10.38-0.28v-47.69H371.87z M374.11,225.42c2.1,0.42,4.77,0.56,8.14,0.56
		c16.41,0,24.41-9.4,24.41-23.71c0-13.33-7.29-21.6-23.15-21.6c-3.93,0-7.15,0.42-9.4,0.84L374.11,225.42L374.11,225.42z"/>
	<polygon id="XMLID_60_" class="st1" points="441.72,227.38 417.6,227.38 417.6,179.13 440.46,179.13 440.46,181.09 419.84,181.09 
		419.84,200.87 439.34,200.87 439.34,202.84 419.84,202.84 419.84,225.42 441.72,225.42 	"/>
	<path id="XMLID_61_" class="st1" d="M470.06,182.5c-1.26-0.98-4.07-2.24-8-2.24c-8.28,0-11.08,5.47-11.08,9.4
		c0,5.61,2.95,8.7,10.1,11.5c7.86,3.23,12.2,6.59,12.2,13.89c0,7.01-5.05,13.05-14.73,13.05c-3.93,0-8.56-1.26-11.22-3.23l1.12-1.82
		c2.81,1.96,6.31,3.23,10.24,3.23c7.72,0,12.2-4.77,12.2-10.94c0-5.75-2.81-9.12-9.82-11.92c-7.86-2.81-12.34-6.73-12.34-13.19
		c0-7.01,5.75-11.92,13.47-11.92c4.35,0,7.72,1.26,9.26,2.38L470.06,182.5z"/>
	<path id="XMLID_62_" class="st1" d="M512,227.38h-2.81l-24.41-20.76v0.14v20.62h-2.24v-48.25h2.24v24.97h0.28
		c1.4-1.82,2.81-3.37,4.21-4.77l18.1-20.2h2.67l-23.85,25.95L512,227.38z"/>
	<polyline id="XMLID_63_" class="st2" points="175.9,158.93 175.9,354.89 176.89,354.89 176.89,158.93 	"/>
	
		<linearGradient id="XMLID_4_" gradientUnits="userSpaceOnUse" x1="7.2425" y1="507.2816" x2="8.6452" y2="507.2816" gradientTransform="matrix(-13.16 -22.6117 -22.6117 13.16 11663.7373 -6293.7764)">
		<stop  offset="0" style="stop-color:#293D7B"/>
		<stop  offset="0.9951" style="stop-color:#263A7D"/>
		<stop  offset="1" style="stop-color:#263A7D"/>
	</linearGradient>
	<polygon id="XMLID_64_" class="st3" points="71.4,157.11 111.94,219.53 77.85,206.62 	"/>
	
		<linearGradient id="XMLID_5_" gradientUnits="userSpaceOnUse" x1="6.8957" y1="507.2933" x2="8.2984" y2="507.2933" gradientTransform="matrix(-14.5317 -23.7178 -23.7178 14.5317 12236.8906 -6961.356)">
		<stop  offset="0" style="stop-color:#2F4786"/>
		<stop  offset="1" style="stop-color:#224082"/>
	</linearGradient>
	<polygon id="XMLID_65_" class="st4" points="108.43,246.32 111.94,219.53 77.85,206.62 83.6,251.37 	"/>
	
		<linearGradient id="XMLID_6_" gradientUnits="userSpaceOnUse" x1="4.7179" y1="506.9515" x2="6.1206" y2="506.9515" gradientTransform="matrix(19.0415 -27.0589 -27.0589 -19.0415 13709.1035 10096.0098)">
		<stop  offset="0" style="stop-color:#27397C"/>
		<stop  offset="4.926070e-03" style="stop-color:#27397C"/>
		<stop  offset="1" style="stop-color:#253C7F"/>
	</linearGradient>
	<polygon id="XMLID_66_" class="st5" points="147.85,319.4 83.6,251.37 47.41,263.72 43.34,290.51 134.66,339.32 	"/>
	
		<linearGradient id="XMLID_7_" gradientUnits="userSpaceOnUse" x1="6.5253" y1="508.8513" x2="7.928" y2="508.8513" gradientTransform="matrix(-4.0084 -18.3724 -18.3724 4.0084 9441.2158 -1658.8923)">
		<stop  offset="0" style="stop-color:#201D50"/>
		<stop  offset="1" style="stop-color:#24285D"/>
	</linearGradient>
	<polygon id="XMLID_67_" class="st6" points="47.41,263.72 56.95,222.61 83.6,251.37 	"/>
	
		<linearGradient id="XMLID_8_" gradientUnits="userSpaceOnUse" x1="10.632" y1="505.8362" x2="12.0347" y2="505.8362" gradientTransform="matrix(-10.5227 -2.7559 -2.7559 10.5227 1592.1082 -5086.9463)">
		<stop  offset="0" style="stop-color:#272C66"/>
		<stop  offset="1" style="stop-color:#283270"/>
	</linearGradient>
	<polygon id="XMLID_68_" class="st7" points="71.4,157.11 56.95,222.61 83.6,251.37 	"/>
	<polygon id="XMLID_69_" class="st8" points="21.74,183.76 56.95,222.61 61.86,200.59 	"/>
	
		<linearGradient id="XMLID_9_" gradientUnits="userSpaceOnUse" x1="5.5152" y1="508.0782" x2="6.918" y2="508.0782" gradientTransform="matrix(7.3488 -30.0645 -30.0645 -7.3488 15261.8955 4153.0488)">
		<stop  offset="0" style="stop-color:#15123E"/>
		<stop  offset="1" style="stop-color:#212053"/>
	</linearGradient>
	<polygon id="XMLID_70_" class="st9" points="14.59,244.64 21.74,183.76 56.95,222.61 47.41,263.72 	"/>
	<polygon id="XMLID_71_" class="st10" points="71.4,157.11 21.74,183.76 61.86,200.59 	"/>
	<polygon id="XMLID_72_" class="st11" points="47.41,263.72 31.42,285.74 43.34,290.51 	"/>
	
		<linearGradient id="XMLID_10_" gradientUnits="userSpaceOnUse" x1="4.4151" y1="507.588" x2="5.8179" y2="507.588" gradientTransform="matrix(14.0308 -29.3143 -29.3143 -14.0308 14832.5547 7592.6816)">
		<stop  offset="0" style="stop-color:#283270"/>
		<stop  offset="1" style="stop-color:#27397C"/>
	</linearGradient>
	<polygon id="XMLID_73_" class="st12" points="43.34,290.51 32.68,342.83 0,333.99 31.42,285.74 	"/>
	
		<linearGradient id="XMLID_11_" gradientUnits="userSpaceOnUse" x1="4.6014" y1="507.8408" x2="6.0042" y2="507.8408" gradientTransform="matrix(12.0261 -30.8169 -30.8169 -12.0261 15595.3838 6577.8037)">
		<stop  offset="0" style="stop-color:#272962"/>
		<stop  offset="1" style="stop-color:#262860"/>
	</linearGradient>
	<polygon id="XMLID_74_" class="st13" points="31.42,285.74 9.82,269.19 0,333.99 	"/>
	
		<linearGradient id="XMLID_12_" gradientUnits="userSpaceOnUse" x1="5.5761" y1="511.0061" x2="6.9788" y2="511.0061" gradientTransform="matrix(-0.6676 -13.0302 -13.0302 0.6676 6691.7891 16.2915)">
		<stop  offset="0" style="stop-color:#212053"/>
		<stop  offset="4.926070e-03" style="stop-color:#212053"/>
		<stop  offset="1" style="stop-color:#232459"/>
	</linearGradient>
	<polygon id="XMLID_75_" class="st14" points="9.82,269.19 47.41,263.72 31.42,285.74 	"/>
	<polygon id="XMLID_76_" class="st15" points="9.82,269.19 14.59,244.64 47.41,263.72 	"/>
	
		<linearGradient id="XMLID_13_" gradientUnits="userSpaceOnUse" x1="6.6277" y1="508.8945" x2="8.0304" y2="508.8945" gradientTransform="matrix(1.0022 -18.7911 -18.7911 -1.0022 9625.8857 838.4694)">
		<stop  offset="0" style="stop-color:#27316D"/>
		<stop  offset="1" style="stop-color:#28316F"/>
	</linearGradient>
	<polygon id="XMLID_77_" class="st16" points="77.85,206.62 61.86,200.59 71.4,157.11 	"/>
</g>
</svg>
